<svg width="640" height="640" viewBox="0 0 640 640" fill="none" xmlns="http://www.w3.org/2000/svg">
  <rect width="640" height="640" rx="320" fill="#0F1F38"/>
  <circle cx="320" cy="320" r="238" fill="url(#paint0_radial)"/>
  <circle cx="251" cy="236" r="72" fill="#D4AF37" fill-opacity="0.16"/>
  <circle cx="412" cy="396" r="112" fill="#244E8D" fill-opacity="0.4"/>
  <path d="M173 425C203.127 345.968 266.086 293 336.5 293C410.267 293 471.48 351.066 498 438.5" stroke="url(#paint1_linear)" stroke-width="18" stroke-linecap="round"/>
  <circle cx="318" cy="237" r="93" fill="url(#paint2_linear)"/>
  <path d="M230 455C251.829 379.148 313.999 328 389 328C435.449 328 478.797 347.634 511 381.5V640H137V513C165.256 499.556 194.645 479.717 230 455Z" fill="url(#paint3_linear)"/>
  <path d="M217 470C244.82 389.468 313.55 338 390.5 338C435.064 338 476.898 355.266 509 386" stroke="#D4AF37" stroke-opacity="0.45" stroke-width="12" stroke-linecap="round"/>
  <path d="M320 145C343.069 145 362.348 151.147 377.837 163.441C394.028 176.293 402.982 195.403 402.982 218.5C402.982 243.661 392.624 267.024 375.354 283.415C360.284 297.718 340.488 306 318 306C296.124 306 276.72 298.348 261.76 285.302C244.297 270.071 233.018 247.858 233.018 222.5C233.018 198.429 242.045 178.504 258.485 164.747C274.749 151.136 294.492 145 320 145Z" fill="#E5EEF8" fill-opacity="0.9"/>
  <text x="320" y="488" text-anchor="middle" fill="#F4D88D" font-family="Sora, Arial, sans-serif" font-size="54" font-weight="700" letter-spacing="4">BK</text>
  <defs>
    <radialGradient id="paint0_radial" cx="0" cy="0" r="1" gradientUnits="userSpaceOnUse" gradientTransform="translate(234 198) rotate(51.2785) scale(514.063)">
      <stop stop-color="#244E8D"/>
      <stop offset="1" stop-color="#0B1D3A"/>
    </radialGradient>
    <linearGradient id="paint1_linear" x1="180" y1="318" x2="468" y2="474" gradientUnits="userSpaceOnUse">
      <stop stop-color="#F4D88D" stop-opacity="0.12"/>
      <stop offset="1" stop-color="#D4AF37" stop-opacity="0.8"/>
    </linearGradient>
    <linearGradient id="paint2_linear" x1="275" y1="165" x2="381" y2="293" gradientUnits="userSpaceOnUse">
      <stop stop-color="#F8FBFF"/>
      <stop offset="1" stop-color="#B4C7E8"/>
    </linearGradient>
    <linearGradient id="paint3_linear" x1="201" y1="348" x2="443" y2="593" gradientUnits="userSpaceOnUse">
      <stop stop-color="#173666"/>
      <stop offset="1" stop-color="#102445"/>
    </linearGradient>
  </defs>
</svg>
